<?xml version="1.0" encoding="utf-8"?>
<!-- Generator: Adobe Illustrator 16.0.0, SVG Export Plug-In . SVG Version: 6.00 Build 0)  -->
<!DOCTYPE svg PUBLIC "-//W3C//DTD SVG 1.1//EN" "http://www.w3.org/Graphics/SVG/1.1/DTD/svg11.dtd">
<svg version="1.1" id="Layer_1" xmlns="http://www.w3.org/2000/svg" xmlns:xlink="http://www.w3.org/1999/xlink" x="0px" y="0px"
	 width="110px" height="110px" viewBox="0 0 110 110" enable-background="new 0 0 110 110" xml:space="preserve">
<polygon fill="none" stroke="#FFFFFF" stroke-miterlimit="10" points="19.321,18.903 54.645,4.625 90.055,19.14 105.372,54.176 
	90.857,89.585 55.16,104.266 19.751,89.751 4.807,54.312 "/>
<circle fill="#FFFFFF" stroke="#0D0921" stroke-miterlimit="10" cx="54.983" cy="4.252" r="3.578"/>
<circle fill="#FFFFFF" stroke="#0D0921" stroke-miterlimit="10" cx="90.245" cy="19.139" r="3.578"/>
<circle fill="#FFFFFF" stroke="#0D0921" stroke-miterlimit="10" cx="19.133" cy="19.376" r="3.578"/>
<circle fill="#FFFFFF" stroke="#0D0921" stroke-miterlimit="10" cx="19.422" cy="89.489" r="3.578"/>
<circle fill="#FFFFFF" stroke="#0D0921" stroke-miterlimit="10" cx="5.191" cy="55.688" r="3.578"/>
<circle fill="#FFFFFF" stroke="#0D0921" stroke-miterlimit="10" cx="53.685" cy="104.324" r="3.578"/>
<circle fill="#FFFFFF" stroke="#0D0921" stroke-miterlimit="10" cx="90.534" cy="89.253" r="3.578"/>
<circle fill="#FFFFFF" stroke="#0D0921" stroke-miterlimit="10" cx="105.421" cy="53.992" r="3.578"/>
<text transform="matrix(1 0 0 1 69.4336 26.709)" fill="#FFFFFF" font-family="'AvantageSmallNormal'" font-size="7.3562">XL</text>
<g>
	<line fill="none" stroke="#F9F9F9" stroke-miterlimit="10" x1="46.5" y1="24" x2="46.5" y2="52"/>
	<line fill="none" stroke="#F9F9F9" stroke-miterlimit="10" x1="66.303" y1="32.317" x2="46.282" y2="52.338"/>
</g>
<g>
	<line fill="none" stroke="#F9F9F9" stroke-miterlimit="10" x1="46.5" y1="88" x2="46.5" y2="60"/>
	<line fill="none" stroke="#F9F9F9" stroke-miterlimit="10" x1="65.863" y1="80.148" x2="45.843" y2="60.127"/>
</g>
</svg>
